<svg xmlns="http://www.w3.org/2000/svg" xmlns:xlink="http://www.w3.org/1999/xlink" contentStyleType="text/css" data-diagram-type="CLASS" height="675px" preserveAspectRatio="none" style="width:854px;height:675px;background:#FFFFFF;" version="1.1" viewBox="0 0 854 675" width="854px" zoomAndPan="magnify"><defs/><g><!--class Delacor_lib_QMH_Cloneable Module Admin--><g class="entity" data-entity="Delacor_lib_QMH_Cloneable Module Admin" data-source-line="8" data-uid="ent0002" id="entity_Delacor_lib_QMH_Cloneable Module Admin"><rect fill="#FFFFFF" height="243.5625" rx="2.5" ry="2.5" style="stroke:#555555;stroke-width:0.5;" width="393.3428" x="7" y="424.64"/><rect fill="#808080" height="32" rx="2.5" ry="2.5" style="stroke:#808080;stroke-width:0.5;" width="393.3428" x="7" y="424.64"/><rect fill="#808080" height="2.5" style="stroke:#808080;stroke-width:0.5;" width="393.3428" x="7" y="454.14"/><rect fill="none" height="243.5625" rx="2.5" ry="2.5" style="stroke:#555555;stroke-width:0.5;" width="393.3428" x="7" y="424.64"/><ellipse cx="49.8156" cy="440.64" fill="#ADD1B2" rx="11" ry="11" style="stroke:#181818;stroke-width:1;"/><path d="M52.7844,446.2806 Q52.2063,446.5775 51.5656,446.7181 Q50.925,446.8744 50.2219,446.8744 Q47.7219,446.8744 46.3938,445.2338 Q45.0813,443.5775 45.0813,440.4525 Q45.0813,437.3275 46.3938,435.6713 Q47.7219,434.015 50.2219,434.015 Q50.925,434.015 51.5656,434.1713 Q52.2219,434.3275 52.7844,434.6244 L52.7844,437.3431 Q52.1594,436.765 51.5656,436.4994 Q50.9719,436.2181 50.3469,436.2181 Q49.0031,436.2181 48.3156,437.2963 Q47.6281,438.3588 47.6281,440.4525 Q47.6281,442.5463 48.3156,443.6244 Q49.0031,444.6869 50.3469,444.6869 Q50.9719,444.6869 51.5656,444.4213 Q52.1594,444.14 52.7844,443.5619 L52.7844,446.2806 Z " fill="#000000"/><text fill="#000000" font-family="sans-serif" font-size="14" lengthAdjust="spacing" textLength="299.5303" x="69.9969" y="445.4867">Delacor_lib_QMH_Cloneable Module Admin</text><line style="stroke:#555555;stroke-width:0.5;" x1="8" x2="399.3428" y1="456.64" y2="456.64"/><rect fill="none" height="6" style="stroke:#C82930;stroke-width:1;" width="6" x="15" y="467.2884"/><text fill="#000000" font-family="sans-serif" font-size="14" lengthAdjust="spacing" textLength="105.8271" x="27" y="473.6351">Module ID : I32</text><rect fill="none" height="6" style="stroke:#C82930;stroke-width:1;" width="6" x="15" y="483.5853"/><text fill="#000000" font-family="sans-serif" font-size="14" lengthAdjust="spacing" textLength="108.2197" x="27" y="489.932">First? : Boolean</text><rect fill="none" height="6" style="stroke:#C82930;stroke-width:1;" width="6" x="15" y="499.8822"/><text fill="#000000" font-family="sans-serif" font-size="14" lengthAdjust="spacing" textLength="236.5918" x="27" y="506.2289">Close Master Reference : Boolean</text><line style="stroke:#555555;stroke-width:0.5;" x1="8" x2="399.3428" y1="513.5306" y2="513.5306"/><ellipse cx="18" cy="527.1791" fill="#84BE84" rx="3" ry="3" style="stroke:#038048;stroke-width:1;"/><text fill="#000000" font-family="sans-serif" font-size="14" lengthAdjust="spacing" text-decoration="underline" textLength="331.7822" x="27" y="530.5257">Delacor_lib_QMH_Get Close Master Reference()</text><ellipse cx="18" cy="543.4759" fill="#84BE84" rx="3" ry="3" style="stroke:#038048;stroke-width:1;"/><text fill="#000000" font-family="sans-serif" font-size="14" lengthAdjust="spacing" text-decoration="underline" textLength="329.8203" x="27" y="546.8226">Delacor_lib_QMH_Set Close Master Reference()</text><ellipse cx="18" cy="559.7728" fill="#84BE84" rx="3" ry="3" style="stroke:#038048;stroke-width:1;"/><text fill="#000000" font-family="sans-serif" font-size="14" lengthAdjust="spacing" text-decoration="underline" textLength="195.9795" x="27" y="563.1195">Delacor_lib_QMH_Get First()</text><ellipse cx="18" cy="576.0697" fill="#84BE84" rx="3" ry="3" style="stroke:#038048;stroke-width:1;"/><text fill="#000000" font-family="sans-serif" font-size="14" lengthAdjust="spacing" text-decoration="underline" textLength="194.0176" x="27" y="579.4164">Delacor_lib_QMH_Set First()</text><ellipse cx="18" cy="592.3666" fill="#84BE84" rx="3" ry="3" style="stroke:#038048;stroke-width:1;"/><text fill="#000000" font-family="sans-serif" font-size="14" lengthAdjust="spacing" text-decoration="underline" textLength="235.7646" x="27" y="595.7132">Delacor_lib_QMH_Get Module ID()</text><ellipse cx="18" cy="608.6634" fill="#84BE84" rx="3" ry="3" style="stroke:#038048;stroke-width:1;"/><text fill="#000000" font-family="sans-serif" font-size="14" lengthAdjust="spacing" text-decoration="underline" textLength="233.8027" x="27" y="612.0101">Delacor_lib_QMH_Set Module ID()</text><ellipse cx="18" cy="624.9603" fill="#84BE84" rx="3" ry="3" style="stroke:#038048;stroke-width:1;"/><text fill="#000000" font-family="sans-serif" font-size="14" lengthAdjust="spacing" text-decoration="underline" textLength="367.3428" x="27" y="628.307">Delacor_lib_QMH_Cloneable Admin Class--constant()</text><ellipse cx="18" cy="641.2572" fill="#84BE84" rx="3" ry="3" style="stroke:#038048;stroke-width:1;"/><text fill="#000000" font-family="sans-serif" font-size="14" lengthAdjust="spacing" text-decoration="underline" textLength="355.3184" x="27" y="644.6039">Delacor_lib_QMH_Cloneable Admin Class--control()</text><ellipse cx="18" cy="657.5541" fill="#84BE84" rx="3" ry="3" style="stroke:#038048;stroke-width:1;"/><text fill="#000000" font-family="sans-serif" font-size="14" lengthAdjust="spacing" textLength="175.834" x="27" y="660.9007">Delacor_lib_QMH_Reset()</text></g><!--class Delacor_lib_QMH_Module Admin--><g class="entity" data-entity="Delacor_lib_QMH_Module Admin" data-source-line="23" data-uid="ent0003" id="entity_Delacor_lib_QMH_Module Admin"><rect fill="#FFFFFF" height="194.6719" rx="2.5" ry="2.5" style="stroke:#555555;stroke-width:0.5;" width="342.5518" x="32.4" y="88.48"/><rect fill="#808080" height="32" rx="2.5" ry="2.5" style="stroke:#808080;stroke-width:0.5;" width="342.5518" x="32.4" y="88.48"/><rect fill="#808080" height="2.5" style="stroke:#808080;stroke-width:0.5;" width="342.5518" x="32.4" y="117.98"/><rect fill="none" height="194.6719" rx="2.5" ry="2.5" style="stroke:#555555;stroke-width:0.5;" width="342.5518" x="32.4" y="88.48"/><ellipse cx="86.7286" cy="104.48" fill="#ADD1B2" rx="11" ry="11" style="stroke:#181818;stroke-width:1;"/><path d="M89.6974,110.1206 Q89.1192,110.4175 88.4786,110.5581 Q87.838,110.7144 87.1349,110.7144 Q84.6349,110.7144 83.3067,109.0738 Q81.9942,107.4175 81.9942,104.2925 Q81.9942,101.1675 83.3067,99.5113 Q84.6349,97.855 87.1349,97.855 Q87.838,97.855 88.4786,98.0113 Q89.1349,98.1675 89.6974,98.4644 L89.6974,101.1831 Q89.0724,100.605 88.4786,100.3394 Q87.8849,100.0581 87.2599,100.0581 Q85.9161,100.0581 85.2286,101.1363 Q84.5411,102.1988 84.5411,104.2925 Q84.5411,106.3863 85.2286,107.4644 Q85.9161,108.5269 87.2599,108.5269 Q87.8849,108.5269 88.4786,108.2613 Q89.0724,107.98 89.6974,107.4019 L89.6974,110.1206 Z " fill="#000000"/><text fill="#000000" font-family="sans-serif" font-size="14" lengthAdjust="spacing" textLength="225.3945" x="107.2286" y="109.3267">Delacor_lib_QMH_Module Admin</text><line style="stroke:#555555;stroke-width:0.5;" x1="33.4" x2="373.9518" y1="120.48" y2="120.48"/><rect fill="none" height="6" style="stroke:#C82930;stroke-width:1;" width="6" x="40.4" y="131.1284"/><text fill="#000000" font-family="sans-serif" font-size="14" lengthAdjust="spacing" textLength="183.7842" x="52.4" y="137.4751">External Launch : Boolean</text><rect fill="none" height="6" style="stroke:#C82930;stroke-width:1;" width="6" x="40.4" y="147.4253"/><text fill="#000000" font-family="sans-serif" font-size="14" lengthAdjust="spacing" textLength="221.3613" x="52.4" y="153.772">Show Diagram on Init : Boolean</text><line style="stroke:#555555;stroke-width:0.5;" x1="33.4" x2="373.9518" y1="161.0738" y2="161.0738"/><ellipse cx="43.4" cy="174.7222" fill="#84BE84" rx="3" ry="3" style="stroke:#038048;stroke-width:1;"/><text fill="#000000" font-family="sans-serif" font-size="14" lengthAdjust="spacing" text-decoration="underline" textLength="278.9746" x="52.4" y="178.0689">Delacor_lib_QMH_Get External Launch()</text><ellipse cx="43.4" cy="191.0191" fill="#84BE84" rx="3" ry="3" style="stroke:#038048;stroke-width:1;"/><text fill="#000000" font-family="sans-serif" font-size="14" lengthAdjust="spacing" text-decoration="underline" textLength="277.0127" x="52.4" y="194.3657">Delacor_lib_QMH_Set External Launch()</text><ellipse cx="43.4" cy="207.3159" fill="#84BE84" rx="3" ry="3" style="stroke:#038048;stroke-width:1;"/><text fill="#000000" font-family="sans-serif" font-size="14" lengthAdjust="spacing" text-decoration="underline" textLength="293.207" x="52.4" y="210.6626">Delacor_lib_QMH_Admin Class--constant()</text><ellipse cx="43.4" cy="223.6128" fill="#84BE84" rx="3" ry="3" style="stroke:#038048;stroke-width:1;"/><text fill="#000000" font-family="sans-serif" font-size="14" lengthAdjust="spacing" text-decoration="underline" textLength="281.1826" x="52.4" y="226.9595">Delacor_lib_QMH_Admin Class--control()</text><ellipse cx="43.4" cy="239.9097" fill="#84BE84" rx="3" ry="3" style="stroke:#038048;stroke-width:1;"/><text fill="#000000" font-family="sans-serif" font-size="14" lengthAdjust="spacing" textLength="316.5518" x="52.4" y="243.2564">Delacor_lib_QMH_Get Show Diagram on Init()</text><ellipse cx="43.4" cy="256.2066" fill="#84BE84" rx="3" ry="3" style="stroke:#038048;stroke-width:1;"/><text fill="#000000" font-family="sans-serif" font-size="14" lengthAdjust="spacing" textLength="314.5898" x="52.4" y="259.5532">Delacor_lib_QMH_Set Show Diagram on Init()</text><ellipse cx="43.4" cy="272.5034" fill="#84BE84" rx="3" ry="3" style="stroke:#038048;stroke-width:1;"/><text fill="#000000" font-family="sans-serif" font-size="14" lengthAdjust="spacing" textLength="175.834" x="52.4" y="275.8501">Delacor_lib_QMH_Reset()</text></g><!--class Delacor_lib_QMH_Message Queue--><g class="entity" data-entity="Delacor_lib_QMH_Message Queue" data-source-line="26" data-uid="ent0005" id="entity_Delacor_lib_QMH_Message Queue"><rect fill="#FFFFFF" height="357.6406" rx="2.5" ry="2.5" style="stroke:#555555;stroke-width:0.5;" width="436.7852" x="410.28" y="7"/><rect fill="#808080" height="32" rx="2.5" ry="2.5" style="stroke:#808080;stroke-width:0.5;" width="436.7852" x="410.28" y="7"/><rect fill="#808080" height="2.5" style="stroke:#808080;stroke-width:0.5;" width="436.7852" x="410.28" y="36.5"/><rect fill="none" height="357.6406" rx="2.5" ry="2.5" style="stroke:#555555;stroke-width:0.5;" width="436.7852" x="410.28" y="7"/><ellipse cx="505.9353" cy="23" fill="#ADD1B2" rx="11" ry="11" style="stroke:#181818;stroke-width:1;"/><path d="M508.904,28.6406 Q508.3259,28.9375 507.6853,29.0781 Q507.0446,29.2344 506.3415,29.2344 Q503.8415,29.2344 502.5134,27.5938 Q501.2009,25.9375 501.2009,22.8125 Q501.2009,19.6875 502.5134,18.0313 Q503.8415,16.375 506.3415,16.375 Q507.0446,16.375 507.6853,16.5313 Q508.3415,16.6875 508.904,16.9844 L508.904,19.7031 Q508.279,19.125 507.6853,18.8594 Q507.0915,18.5781 506.4665,18.5781 Q505.1228,18.5781 504.4353,19.6563 Q503.7478,20.7188 503.7478,22.8125 Q503.7478,24.9063 504.4353,25.9844 Q505.1228,27.0469 506.4665,27.0469 Q507.0915,27.0469 507.6853,26.7813 Q508.279,26.5 508.904,25.9219 L508.904,28.6406 Z " fill="#000000"/><text fill="#000000" font-family="sans-serif" font-size="14" lengthAdjust="spacing" textLength="236.9746" x="526.4353" y="27.8467">Delacor_lib_QMH_Message Queue</text><line style="stroke:#555555;stroke-width:0.5;" x1="411.28" x2="846.0652" y1="39" y2="39"/><rect fill="none" height="6" style="stroke:#C82930;stroke-width:1;" width="6" x="418.28" y="49.6484"/><text fill="#000000" font-family="sans-serif" font-size="14" lengthAdjust="spacing" textLength="178.7939" x="430.28" y="55.9951">Message Queue : NoType</text><rect fill="none" height="6" style="stroke:#C82930;stroke-width:1;" width="6" x="418.28" y="65.9453"/><text fill="#000000" font-family="sans-serif" font-size="14" lengthAdjust="spacing" textLength="140.5674" x="430.28" y="72.292">Error Debug : String</text><line style="stroke:#555555;stroke-width:0.5;" x1="411.28" x2="846.0652" y1="79.5938" y2="79.5938"/><ellipse cx="421.28" cy="93.2422" fill="#84BE84" rx="3" ry="3" style="stroke:#038048;stroke-width:1;"/><text fill="#000000" font-family="sans-serif" font-size="14" lengthAdjust="spacing" text-decoration="underline" textLength="250.667" x="430.28" y="96.5889">Delacor_lib_QMH_Get Error Debug()</text><ellipse cx="421.28" cy="109.5391" fill="#84BE84" rx="3" ry="3" style="stroke:#038048;stroke-width:1;"/><text fill="#000000" font-family="sans-serif" font-size="14" lengthAdjust="spacing" text-decoration="underline" textLength="248.7051" x="430.28" y="112.8857">Delacor_lib_QMH_Set Error Debug()</text><polygon fill="#FFFF44" points="421.28,120.8359,425.28,124.8359,421.28,128.8359,417.28,124.8359" style="stroke:#B38D22;stroke-width:1;"/><text fill="#000000" font-family="sans-serif" font-size="14" lengthAdjust="spacing" text-decoration="underline" textLength="277.2998" x="430.28" y="129.1826">Delacor_lib_QMH_Get Message Queue()</text><polygon fill="#FFFF44" points="421.28,137.1328,425.28,141.1328,421.28,145.1328,417.28,141.1328" style="stroke:#B38D22;stroke-width:1;"/><text fill="#000000" font-family="sans-serif" font-size="14" lengthAdjust="spacing" text-decoration="underline" textLength="275.3379" x="430.28" y="145.4795">Delacor_lib_QMH_Set Message Queue()</text><ellipse cx="421.28" cy="158.4297" fill="#84BE84" rx="3" ry="3" style="stroke:#038048;stroke-width:1;"/><text fill="#000000" font-family="sans-serif" font-size="14" lengthAdjust="spacing" text-decoration="underline" textLength="284.0811" x="430.28" y="161.7764">Delacor_lib_QMH_Process Error Variant()</text><ellipse cx="421.28" cy="174.7266" fill="#84BE84" rx="3" ry="3" style="stroke:#038048;stroke-width:1;"/><text fill="#000000" font-family="sans-serif" font-size="14" lengthAdjust="spacing" text-decoration="underline" textLength="316.8115" x="430.28" y="178.0732">Delacor_lib_QMH_Enqueue Message (Array)()</text><ellipse cx="421.28" cy="191.0234" fill="#84BE84" rx="3" ry="3" style="stroke:#038048;stroke-width:1;"/><text fill="#000000" font-family="sans-serif" font-size="14" lengthAdjust="spacing" text-decoration="underline" textLength="321.8975" x="430.28" y="194.3701">Delacor_lib_QMH_Enqueue Message (Single)()</text><ellipse cx="421.28" cy="207.3203" fill="#84BE84" rx="3" ry="3" style="stroke:#038048;stroke-width:1;"/><text fill="#000000" font-family="sans-serif" font-size="14" lengthAdjust="spacing" text-decoration="underline" textLength="299.1748" x="430.28" y="210.667">Delacor_lib_QMH_Create Message Queue()</text><ellipse cx="421.28" cy="223.6172" fill="#84BE84" rx="3" ry="3" style="stroke:#038048;stroke-width:1;"/><text fill="#000000" font-family="sans-serif" font-size="14" lengthAdjust="spacing" text-decoration="underline" textLength="328.3574" x="430.28" y="226.9639">Delacor_lib_QMH_DQMH Error Tags--constant()</text><ellipse cx="421.28" cy="239.9141" fill="#84BE84" rx="3" ry="3" style="stroke:#038048;stroke-width:1;"/><text fill="#000000" font-family="sans-serif" font-size="14" lengthAdjust="spacing" text-decoration="underline" textLength="308.4854" x="430.28" y="243.2607">Delacor_lib_QMH_Enqueue Message (poly)()</text><ellipse cx="421.28" cy="256.2109" fill="#84BE84" rx="3" ry="3" style="stroke:#038048;stroke-width:1;"/><text fill="#000000" font-family="sans-serif" font-size="14" lengthAdjust="spacing" textLength="256.5596" x="430.28" y="259.5576">Delacor_lib_QMH_Check Loop Error()</text><ellipse cx="421.28" cy="272.5078" fill="#84BE84" rx="3" ry="3" style="stroke:#038048;stroke-width:1;"/><text fill="#000000" font-family="sans-serif" font-size="14" lengthAdjust="spacing" textLength="389.5322" x="430.28" y="275.8545">Delacor_lib_QMH_Error Handler - Event Handling Loop()</text><ellipse cx="421.28" cy="288.8047" fill="#84BE84" rx="3" ry="3" style="stroke:#038048;stroke-width:1;"/><text fill="#000000" font-family="sans-serif" font-size="14" lengthAdjust="spacing" textLength="410.7852" x="430.28" y="292.1514">Delacor_lib_QMH_Error Handler - Message Handling Loop()</text><ellipse cx="421.28" cy="305.1016" fill="#84BE84" rx="3" ry="3" style="stroke:#038048;stroke-width:1;"/><text fill="#000000" font-family="sans-serif" font-size="14" lengthAdjust="spacing" textLength="328.8564" x="430.28" y="308.4482">Delacor_lib_QMH_Error Handler - Helper Loop()</text><ellipse cx="421.28" cy="321.3984" fill="#84BE84" rx="3" ry="3" style="stroke:#038048;stroke-width:1;"/><text fill="#000000" font-family="sans-serif" font-size="14" lengthAdjust="spacing" textLength="265.1592" x="430.28" y="324.7451">Delacor_lib_QMH_Dequeue Message()</text><ellipse cx="421.28" cy="337.6953" fill="#84BE84" rx="3" ry="3" style="stroke:#038048;stroke-width:1;"/><text fill="#000000" font-family="sans-serif" font-size="14" lengthAdjust="spacing" textLength="246.1826" x="430.28" y="341.042">Delacor_lib_QMH_Flush Messages()</text><ellipse cx="421.28" cy="353.9922" fill="#84BE84" rx="3" ry="3" style="stroke:#038048;stroke-width:1;"/><text fill="#000000" font-family="sans-serif" font-size="14" lengthAdjust="spacing" textLength="307.6787" x="430.28" y="357.3389">Delacor_lib_QMH_Release Message Queue()</text></g><!--reverse link Delacor_lib_QMH_Module Admin to Delacor_lib_QMH_Cloneable Module Admin--><g class="link" data-entity-1="Delacor_lib_QMH_Module Admin" data-entity-2="Delacor_lib_QMH_Cloneable Module Admin" data-source-line="23" data-uid="lnk4" id="link_Delacor_lib_QMH_Module Admin_Delacor_lib_QMH_Cloneable Module Admin"><path codeLine="23" d="M203.67,301.39 C203.67,344.74 203.67,378.37 203.67,424.28" fill="none" id="Delacor_lib_QMH_Module Admin-backto-Delacor_lib_QMH_Cloneable Module Admin" style="stroke:#181818;stroke-width:1;"/><polygon fill="none" points="203.67,283.39,197.67,301.39,209.67,301.39,203.67,283.39" style="stroke:#181818;stroke-width:1;"/></g><!--SRC=[fLNRRjf047ttLwoIbqILfQXLfIggL2KO2bAecZZgAnhM4xDYsN5trsqZcd_ls40nc8iDQu4nSyxSFUFG2mCpT1b8Z3432vwik0tSL9dYQIOw6fox1pbDBUKcwP1cm6MlF3KOsGJj4lAnFDkG7Xc_1DoKPnlGHs0TDOEVReehgA0zPVmHO_AUPY9H5gLNP09PQ14N4MgGP4TQZKUFm_weeyaWZ3MA8IKvt-wIcJ8NOXxCNnJgv4s4Iy4W4hTYyE7zMj1Jrlal_EyzaKOmQmbhTQmHd4Shdl05BHg9LQJpu9Ly4_CP-WanvzssPr-v2BlrN5qtuSTdyWlxPOJDpRM05zh_9xQvXPQKTNNBiYvQAGmb6UOQVwuIRqaNElPIdz1XOILu2sgTjzbld_-6OUFk389zxJn4vo15yPXZZfjTN9Lm9twZvzSCr_AkjVn2HJZEKvR6tYgJDYraXTkybCT8bpjRfXf5CrhSY5PpyRiboQobcp_0giODqpK_ooIlh5xTMGklroUIOow4neRiZaNmU4gy4NyjWts6jFLBKdCx8xq8UR-l4vHJyK0yi4kx1y4Bp_fW4isZB1JTNsZyufdpKsffnL_vURg6FkgCVnpbHRYHcOFOdixTP8LqHqOBBn9NBpMFcltJOT-Aw_xX1M50YmV8ZPpiMcdnX7wBI45QB5aoOc2KRx_GjWorc1Qd4CyO-gr7VH7ThXmT9CMda2fB9GZ-0G00]--></g></svg>