<svg xmlns="http://www.w3.org/2000/svg" xmlns:xlink="http://www.w3.org/1999/xlink" contentStyleType="text/css" data-diagram-type="CLASS" height="378px" preserveAspectRatio="none" style="width:457px;height:378px;background:#FFFFFF;" version="1.1" viewBox="0 0 457 378" width="457px" zoomAndPan="magnify"><defs/><g><!--class Delacor_lib_QMH_Message Queue--><g class="entity" data-entity="Delacor_lib_QMH_Message Queue" data-source-line="8" data-uid="ent0002" id="entity_Delacor_lib_QMH_Message Queue"><rect fill="#FFFFFF" height="357.6406" rx="2.5" ry="2.5" style="stroke:#555555;stroke-width:0.5;" width="436.7852" x="7" y="7"/><rect fill="#808080" height="32" rx="2.5" ry="2.5" style="stroke:#808080;stroke-width:0.5;" width="436.7852" x="7" y="7"/><rect fill="#808080" height="2.5" style="stroke:#808080;stroke-width:0.5;" width="436.7852" x="7" y="36.5"/><rect fill="none" height="357.6406" rx="2.5" ry="2.5" style="stroke:#555555;stroke-width:0.5;" width="436.7852" x="7" y="7"/><ellipse cx="102.6553" cy="23" fill="#ADD1B2" rx="11" ry="11" style="stroke:#181818;stroke-width:1;"/><path d="M105.624,28.6406 Q105.0459,28.9375 104.4053,29.0781 Q103.7646,29.2344 103.0615,29.2344 Q100.5615,29.2344 99.2334,27.5938 Q97.9209,25.9375 97.9209,22.8125 Q97.9209,19.6875 99.2334,18.0313 Q100.5615,16.375 103.0615,16.375 Q103.7646,16.375 104.4053,16.5313 Q105.0615,16.6875 105.624,16.9844 L105.624,19.7031 Q104.999,19.125 104.4053,18.8594 Q103.8115,18.5781 103.1865,18.5781 Q101.8428,18.5781 101.1553,19.6563 Q100.4678,20.7188 100.4678,22.8125 Q100.4678,24.9063 101.1553,25.9844 Q101.8428,27.0469 103.1865,27.0469 Q103.8115,27.0469 104.4053,26.7813 Q104.999,26.5 105.624,25.9219 L105.624,28.6406 Z " fill="#000000"/><text fill="#000000" font-family="sans-serif" font-size="14" lengthAdjust="spacing" textLength="236.9746" x="123.1553" y="27.8467">Delacor_lib_QMH_Message Queue</text><line style="stroke:#555555;stroke-width:0.5;" x1="8" x2="442.7852" y1="39" y2="39"/><rect fill="none" height="6" style="stroke:#C82930;stroke-width:1;" width="6" x="15" y="49.6484"/><text fill="#000000" font-family="sans-serif" font-size="14" lengthAdjust="spacing" textLength="178.7939" x="27" y="55.9951">Message Queue : NoType</text><rect fill="none" height="6" style="stroke:#C82930;stroke-width:1;" width="6" x="15" y="65.9453"/><text fill="#000000" font-family="sans-serif" font-size="14" lengthAdjust="spacing" textLength="140.5674" x="27" y="72.292">Error Debug : String</text><line style="stroke:#555555;stroke-width:0.5;" x1="8" x2="442.7852" y1="79.5938" y2="79.5938"/><ellipse cx="18" cy="93.2422" fill="#84BE84" rx="3" ry="3" style="stroke:#038048;stroke-width:1;"/><text fill="#000000" font-family="sans-serif" font-size="14" lengthAdjust="spacing" text-decoration="underline" textLength="250.667" x="27" y="96.5889">Delacor_lib_QMH_Get Error Debug()</text><ellipse cx="18" cy="109.5391" fill="#84BE84" rx="3" ry="3" style="stroke:#038048;stroke-width:1;"/><text fill="#000000" font-family="sans-serif" font-size="14" lengthAdjust="spacing" text-decoration="underline" textLength="248.7051" x="27" y="112.8857">Delacor_lib_QMH_Set Error Debug()</text><polygon fill="#FFFF44" points="18,120.8359,22,124.8359,18,128.8359,14,124.8359" style="stroke:#B38D22;stroke-width:1;"/><text fill="#000000" font-family="sans-serif" font-size="14" lengthAdjust="spacing" text-decoration="underline" textLength="277.2998" x="27" y="129.1826">Delacor_lib_QMH_Get Message Queue()</text><polygon fill="#FFFF44" points="18,137.1328,22,141.1328,18,145.1328,14,141.1328" style="stroke:#B38D22;stroke-width:1;"/><text fill="#000000" font-family="sans-serif" font-size="14" lengthAdjust="spacing" text-decoration="underline" textLength="275.3379" x="27" y="145.4795">Delacor_lib_QMH_Set Message Queue()</text><ellipse cx="18" cy="158.4297" fill="#84BE84" rx="3" ry="3" style="stroke:#038048;stroke-width:1;"/><text fill="#000000" font-family="sans-serif" font-size="14" lengthAdjust="spacing" text-decoration="underline" textLength="284.0811" x="27" y="161.7764">Delacor_lib_QMH_Process Error Variant()</text><ellipse cx="18" cy="174.7266" fill="#84BE84" rx="3" ry="3" style="stroke:#038048;stroke-width:1;"/><text fill="#000000" font-family="sans-serif" font-size="14" lengthAdjust="spacing" text-decoration="underline" textLength="316.8115" x="27" y="178.0732">Delacor_lib_QMH_Enqueue Message (Array)()</text><ellipse cx="18" cy="191.0234" fill="#84BE84" rx="3" ry="3" style="stroke:#038048;stroke-width:1;"/><text fill="#000000" font-family="sans-serif" font-size="14" lengthAdjust="spacing" text-decoration="underline" textLength="321.8975" x="27" y="194.3701">Delacor_lib_QMH_Enqueue Message (Single)()</text><ellipse cx="18" cy="207.3203" fill="#84BE84" rx="3" ry="3" style="stroke:#038048;stroke-width:1;"/><text fill="#000000" font-family="sans-serif" font-size="14" lengthAdjust="spacing" text-decoration="underline" textLength="299.1748" x="27" y="210.667">Delacor_lib_QMH_Create Message Queue()</text><ellipse cx="18" cy="223.6172" fill="#84BE84" rx="3" ry="3" style="stroke:#038048;stroke-width:1;"/><text fill="#000000" font-family="sans-serif" font-size="14" lengthAdjust="spacing" text-decoration="underline" textLength="328.3574" x="27" y="226.9639">Delacor_lib_QMH_DQMH Error Tags--constant()</text><ellipse cx="18" cy="239.9141" fill="#84BE84" rx="3" ry="3" style="stroke:#038048;stroke-width:1;"/><text fill="#000000" font-family="sans-serif" font-size="14" lengthAdjust="spacing" text-decoration="underline" textLength="308.4854" x="27" y="243.2607">Delacor_lib_QMH_Enqueue Message (poly)()</text><ellipse cx="18" cy="256.2109" fill="#84BE84" rx="3" ry="3" style="stroke:#038048;stroke-width:1;"/><text fill="#000000" font-family="sans-serif" font-size="14" lengthAdjust="spacing" textLength="256.5596" x="27" y="259.5576">Delacor_lib_QMH_Check Loop Error()</text><ellipse cx="18" cy="272.5078" fill="#84BE84" rx="3" ry="3" style="stroke:#038048;stroke-width:1;"/><text fill="#000000" font-family="sans-serif" font-size="14" lengthAdjust="spacing" textLength="389.5322" x="27" y="275.8545">Delacor_lib_QMH_Error Handler - Event Handling Loop()</text><ellipse cx="18" cy="288.8047" fill="#84BE84" rx="3" ry="3" style="stroke:#038048;stroke-width:1;"/><text fill="#000000" font-family="sans-serif" font-size="14" lengthAdjust="spacing" textLength="410.7852" x="27" y="292.1514">Delacor_lib_QMH_Error Handler - Message Handling Loop()</text><ellipse cx="18" cy="305.1016" fill="#84BE84" rx="3" ry="3" style="stroke:#038048;stroke-width:1;"/><text fill="#000000" font-family="sans-serif" font-size="14" lengthAdjust="spacing" textLength="328.8564" x="27" y="308.4482">Delacor_lib_QMH_Error Handler - Helper Loop()</text><ellipse cx="18" cy="321.3984" fill="#84BE84" rx="3" ry="3" style="stroke:#038048;stroke-width:1;"/><text fill="#000000" font-family="sans-serif" font-size="14" lengthAdjust="spacing" textLength="265.1592" x="27" y="324.7451">Delacor_lib_QMH_Dequeue Message()</text><ellipse cx="18" cy="337.6953" fill="#84BE84" rx="3" ry="3" style="stroke:#038048;stroke-width:1;"/><text fill="#000000" font-family="sans-serif" font-size="14" lengthAdjust="spacing" textLength="246.1826" x="27" y="341.042">Delacor_lib_QMH_Flush Messages()</text><ellipse cx="18" cy="353.9922" fill="#84BE84" rx="3" ry="3" style="stroke:#038048;stroke-width:1;"/><text fill="#000000" font-family="sans-serif" font-size="14" lengthAdjust="spacing" textLength="307.6787" x="27" y="357.3389">Delacor_lib_QMH_Release Message Queue()</text></g><!--SRC=[dP9HJy8m4CVV-oaQU86O9RoO6DwKWNiG8uxuIexk70rTRxQT2I5yTyiO4PZYN9SjQ-x_k_lVjHOTrv2XpK5WZ3aOS6JuaDcrrFjTnaSAh7q0iKuD5JePaVA2xgHSDHcP14qbkItNfMH2sbM2GRak1H62pr4hU3VOF-n4xIZtBr-ISvJnH1eKJf9cOf-5Tq9K8CWib5mkPjDeCKLh8KK-Ax303j-oxRj4bUnuS1RXG_vCyqsEt_6nCTv1YCiYzT7O6QbJjhKEd1GxlitGhSZhRYuhFlhXdh2zVXCeRW1rVwfqraKpB6w4rIo-61AUgco-WP6WNJDqh3_A8H-hzkwDWKs_9HpxWr3Oa1uP18Tj-Wtzfsfs3gaD0a7QKwrxpaaTMlxTwmh5cZ-Hl-5btQlYWxC8TABGy82FFr6xmzxFfypoB_xeits625NkV_xaGZoRp5NjH1LsTLJQgz9NL0YsVjHinnZx0W00]--></g></svg>