<svg xmlns="http://www.w3.org/2000/svg" xmlns:xlink="http://www.w3.org/1999/xlink" contentStyleType="text/css" data-diagram-type="CLASS" height="365px" preserveAspectRatio="none" style="width:407px;height:365px;background:#FFFFFF;" version="1.1" viewBox="0 0 407 365" width="407px" zoomAndPan="magnify"><defs/><g><!--class Delacor_lib_QMH_Cloneable Module Admin--><g class="entity" data-entity="Delacor_lib_QMH_Cloneable Module Admin" data-source-line="8" data-uid="ent0002" id="entity_Delacor_lib_QMH_Cloneable Module Admin"><rect fill="#FFFFFF" height="243.5625" rx="2.5" ry="2.5" style="stroke:#555555;stroke-width:0.5;" width="393.3428" x="7" y="115"/><rect fill="#808080" height="32" rx="2.5" ry="2.5" style="stroke:#808080;stroke-width:0.5;" width="393.3428" x="7" y="115"/><rect fill="#808080" height="2.5" style="stroke:#808080;stroke-width:0.5;" width="393.3428" x="7" y="144.5"/><rect fill="none" height="243.5625" rx="2.5" ry="2.5" style="stroke:#555555;stroke-width:0.5;" width="393.3428" x="7" y="115"/><ellipse cx="49.8156" cy="131" fill="#ADD1B2" rx="11" ry="11" style="stroke:#181818;stroke-width:1;"/><path d="M52.7844,136.6406 Q52.2063,136.9375 51.5656,137.0781 Q50.925,137.2344 50.2219,137.2344 Q47.7219,137.2344 46.3938,135.5938 Q45.0813,133.9375 45.0813,130.8125 Q45.0813,127.6875 46.3938,126.0313 Q47.7219,124.375 50.2219,124.375 Q50.925,124.375 51.5656,124.5313 Q52.2219,124.6875 52.7844,124.9844 L52.7844,127.7031 Q52.1594,127.125 51.5656,126.8594 Q50.9719,126.5781 50.3469,126.5781 Q49.0031,126.5781 48.3156,127.6563 Q47.6281,128.7188 47.6281,130.8125 Q47.6281,132.9063 48.3156,133.9844 Q49.0031,135.0469 50.3469,135.0469 Q50.9719,135.0469 51.5656,134.7813 Q52.1594,134.5 52.7844,133.9219 L52.7844,136.6406 Z " fill="#000000"/><text fill="#000000" font-family="sans-serif" font-size="14" lengthAdjust="spacing" textLength="299.5303" x="69.9969" y="135.8467">Delacor_lib_QMH_Cloneable Module Admin</text><line style="stroke:#555555;stroke-width:0.5;" x1="8" x2="399.3428" y1="147" y2="147"/><rect fill="none" height="6" style="stroke:#C82930;stroke-width:1;" width="6" x="15" y="157.6484"/><text fill="#000000" font-family="sans-serif" font-size="14" lengthAdjust="spacing" textLength="105.8271" x="27" y="163.9951">Module ID : I32</text><rect fill="none" height="6" style="stroke:#C82930;stroke-width:1;" width="6" x="15" y="173.9453"/><text fill="#000000" font-family="sans-serif" font-size="14" lengthAdjust="spacing" textLength="108.2197" x="27" y="180.292">First? : Boolean</text><rect fill="none" height="6" style="stroke:#C82930;stroke-width:1;" width="6" x="15" y="190.2422"/><text fill="#000000" font-family="sans-serif" font-size="14" lengthAdjust="spacing" textLength="236.5918" x="27" y="196.5889">Close Master Reference : Boolean</text><line style="stroke:#555555;stroke-width:0.5;" x1="8" x2="399.3428" y1="203.8906" y2="203.8906"/><ellipse cx="18" cy="217.5391" fill="#84BE84" rx="3" ry="3" style="stroke:#038048;stroke-width:1;"/><text fill="#000000" font-family="sans-serif" font-size="14" lengthAdjust="spacing" text-decoration="underline" textLength="331.7822" x="27" y="220.8857">Delacor_lib_QMH_Get Close Master Reference()</text><ellipse cx="18" cy="233.8359" fill="#84BE84" rx="3" ry="3" style="stroke:#038048;stroke-width:1;"/><text fill="#000000" font-family="sans-serif" font-size="14" lengthAdjust="spacing" text-decoration="underline" textLength="329.8203" x="27" y="237.1826">Delacor_lib_QMH_Set Close Master Reference()</text><ellipse cx="18" cy="250.1328" fill="#84BE84" rx="3" ry="3" style="stroke:#038048;stroke-width:1;"/><text fill="#000000" font-family="sans-serif" font-size="14" lengthAdjust="spacing" text-decoration="underline" textLength="195.9795" x="27" y="253.4795">Delacor_lib_QMH_Get First()</text><ellipse cx="18" cy="266.4297" fill="#84BE84" rx="3" ry="3" style="stroke:#038048;stroke-width:1;"/><text fill="#000000" font-family="sans-serif" font-size="14" lengthAdjust="spacing" text-decoration="underline" textLength="194.0176" x="27" y="269.7764">Delacor_lib_QMH_Set First()</text><ellipse cx="18" cy="282.7266" fill="#84BE84" rx="3" ry="3" style="stroke:#038048;stroke-width:1;"/><text fill="#000000" font-family="sans-serif" font-size="14" lengthAdjust="spacing" text-decoration="underline" textLength="235.7646" x="27" y="286.0732">Delacor_lib_QMH_Get Module ID()</text><ellipse cx="18" cy="299.0234" fill="#84BE84" rx="3" ry="3" style="stroke:#038048;stroke-width:1;"/><text fill="#000000" font-family="sans-serif" font-size="14" lengthAdjust="spacing" text-decoration="underline" textLength="233.8027" x="27" y="302.3701">Delacor_lib_QMH_Set Module ID()</text><ellipse cx="18" cy="315.3203" fill="#84BE84" rx="3" ry="3" style="stroke:#038048;stroke-width:1;"/><text fill="#000000" font-family="sans-serif" font-size="14" lengthAdjust="spacing" text-decoration="underline" textLength="367.3428" x="27" y="318.667">Delacor_lib_QMH_Cloneable Admin Class--constant()</text><ellipse cx="18" cy="331.6172" fill="#84BE84" rx="3" ry="3" style="stroke:#038048;stroke-width:1;"/><text fill="#000000" font-family="sans-serif" font-size="14" lengthAdjust="spacing" text-decoration="underline" textLength="355.3184" x="27" y="334.9639">Delacor_lib_QMH_Cloneable Admin Class--control()</text><ellipse cx="18" cy="347.9141" fill="#84BE84" rx="3" ry="3" style="stroke:#038048;stroke-width:1;"/><text fill="#000000" font-family="sans-serif" font-size="14" lengthAdjust="spacing" textLength="175.834" x="27" y="351.2607">Delacor_lib_QMH_Reset()</text></g><!--class Delacor_lib_QMH_Module Admin--><g class="entity" data-entity="Delacor_lib_QMH_Module Admin" data-source-line="23" data-uid="ent0003" id="entity_Delacor_lib_QMH_Module Admin"><rect fill="#FFFFFF" height="48" rx="2.5" ry="2.5" style="stroke:#555555;stroke-width:0.5;" width="257.3945" x="74.97" y="7"/><rect fill="#808080" height="32" rx="2.5" ry="2.5" style="stroke:#808080;stroke-width:0.5;" width="257.3945" x="74.97" y="7"/><rect fill="#808080" height="2.5" style="stroke:#808080;stroke-width:0.5;" width="257.3945" x="74.97" y="36.5"/><rect fill="none" height="48" rx="2.5" ry="2.5" style="stroke:#555555;stroke-width:0.5;" width="257.3945" x="74.97" y="7"/><ellipse cx="89.97" cy="23" fill="#ADD1B2" rx="11" ry="11" style="stroke:#181818;stroke-width:1;"/><path d="M92.9388,28.6406 Q92.3606,28.9375 91.72,29.0781 Q91.0794,29.2344 90.3763,29.2344 Q87.8763,29.2344 86.5481,27.5938 Q85.2356,25.9375 85.2356,22.8125 Q85.2356,19.6875 86.5481,18.0313 Q87.8763,16.375 90.3763,16.375 Q91.0794,16.375 91.72,16.5313 Q92.3763,16.6875 92.9388,16.9844 L92.9388,19.7031 Q92.3138,19.125 91.72,18.8594 Q91.1263,18.5781 90.5013,18.5781 Q89.1575,18.5781 88.47,19.6563 Q87.7825,20.7188 87.7825,22.8125 Q87.7825,24.9063 88.47,25.9844 Q89.1575,27.0469 90.5013,27.0469 Q91.1263,27.0469 91.72,26.7813 Q92.3138,26.5 92.9388,25.9219 L92.9388,28.6406 Z " fill="#000000"/><text fill="#000000" font-family="sans-serif" font-size="14" lengthAdjust="spacing" textLength="225.3945" x="103.97" y="27.8467">Delacor_lib_QMH_Module Admin</text><line style="stroke:#555555;stroke-width:0.5;" x1="75.97" x2="331.3645" y1="39" y2="39"/><line style="stroke:#555555;stroke-width:0.5;" x1="75.97" x2="331.3645" y1="47" y2="47"/></g><!--reverse link Delacor_lib_QMH_Module Admin to Delacor_lib_QMH_Cloneable Module Admin--><g class="link" data-entity-1="Delacor_lib_QMH_Module Admin" data-entity-2="Delacor_lib_QMH_Cloneable Module Admin" data-source-line="23" data-uid="lnk4" id="link_Delacor_lib_QMH_Module Admin_Delacor_lib_QMH_Cloneable Module Admin"><path codeLine="23" d="M203.67,73.37 C203.67,88.74 203.67,92.16 203.67,114.88" fill="none" id="Delacor_lib_QMH_Module Admin-backto-Delacor_lib_QMH_Cloneable Module Admin" style="stroke:#181818;stroke-width:1;"/><polygon fill="none" points="203.67,55.37,197.67,73.37,209.67,73.37,203.67,55.37" style="stroke:#181818;stroke-width:1;"/></g><!--SRC=[fPB1IiD048Rl-nH3lIWIA8eWHH3R4jj33xOFK3QxKrswsIcxqrFCkxiRWwsfGaedX93Cz_z_afc034wM67PIuGftqaic3oCHjiQbkn8cLeOmbchxxcdlz8Hi1AxofaumyXfzYpmqrKLoSjm2mwQwm0nbz3W9V1ocGnpHJBjuGa7CL88s7XKRSa8b5nXCqKf5VcrDiNvRpDOJImvbOH4MfFVnyg9BumPGYMfZqEeQihOndy88vlTtXqPkVE3d-7HCP56wGoUwXkWe0wE79MxGerDuJ0QMR5GDLOdyGL5pstsprpY4ltskR_heLnVgKtxpXVtZpi2J-y-FxPzmfkGmtMQitwkKPOfSr3g-r8GzsUJnhtI90LEAgCN9vltUjwVFBEkzdKA8Bm00]--></g></svg>